<svg width="501" height="369" viewBox="0 0 501 369" fill="none" xmlns="http://www.w3.org/2000/svg">
<path d="M496.332 286.31C489.515 281.995 479.548 281.692 472.053 282.166C323.207 291.796 159.665 317.859 13.9565 354.67C9.1932 355.88 -7.89584 369.536 4.31706 368.984C8.6514 368.786 24.1941 362.827 35.7072 359.919C72.1766 350.512 207.41 313.912 424.014 304.663C422.852 307.873 426.08 311.096 437.729 314.372C462.064 319.201 476.173 309.833 496.603 296.585C501.57 293.546 500.757 289.112 496.321 286.297L496.332 286.31Z" fill="white"/>
<path d="M47.2457 126.583C42.418 126.583 36.1873 125.985 31.1223 124.82C26.0574 123.644 21.3328 121.818 16.9796 119.342C12.6161 116.866 8.90241 113.503 5.83866 109.263C2.77491 105.024 0.825253 99.835 0 93.7075H28.4712C28.9354 96.0698 30.2043 97.9163 32.2674 99.2779C34.3202 100.629 36.7444 101.609 39.5193 102.197C42.2839 102.796 46.1213 103.084 48.4836 103.084C50.4848 103.084 53.1153 102.94 54.7039 102.641C56.2926 102.342 57.6852 101.929 58.8612 101.403C60.0371 100.877 60.9243 100.144 61.5123 99.1954C62.1003 98.2567 62.3891 97.1942 62.3891 96.0182C62.3891 94.4812 61.8836 93.2742 60.883 92.3974C59.8824 91.5206 58.5001 90.7778 56.7361 90.1898C54.9721 89.6019 52.8471 89.1273 50.3714 88.7766C49.1129 88.6012 38.0029 86.6 36.6 86.3008C33.2989 85.5891 29.7297 84.7741 25.9026 83.8251C22.0755 82.8864 18.4444 81.4937 15.0299 79.6679C11.6154 77.842 8.81989 75.2837 6.63297 71.9724C4.44605 68.6714 3.3629 64.3697 3.3629 59.0675C3.3629 53.301 4.66268 48.5146 7.25191 44.7494C9.84114 40.9738 13.204 38.0648 17.3303 36.0017C21.4463 33.9386 25.8717 32.4634 30.5962 31.5866C35.3105 30.6994 40.9944 30.2559 45.1207 30.2559C51.8465 30.2559 59.0365 31.3184 65.0505 33.4331C71.0646 35.5478 76.0986 38.9416 80.163 43.594C84.2377 48.2567 86.6206 54.4151 87.3221 62.0694H60.2744C60.2744 60.0681 59.511 58.4176 57.9843 57.1178C56.4473 55.8284 54.5079 54.8484 52.1457 54.1985C49.7834 53.5486 46.4205 53.2288 43.7074 53.2288C41.2317 53.2288 37.7863 53.4351 35.8985 53.8478C34.0107 54.2604 32.5356 54.9103 31.4834 55.7974C30.4209 56.6846 29.8948 57.8915 29.8948 59.4182C29.8948 60.8315 30.6272 62.0694 32.092 63.1319C33.5672 64.1944 35.5478 65.0196 38.0235 65.6076C40.4993 66.1956 45.2548 66.7836 48.0813 67.3716C49.608 67.6914 59.8308 69.0531 61.1719 69.3213C65.9996 70.26 70.5694 71.5907 74.8711 73.3031C79.1727 75.0155 82.6491 77.5841 85.3105 80.9986C87.9616 84.4234 89.2923 89.1273 89.2923 95.1414C89.2923 101.155 88.106 105.787 85.7541 109.728C83.3918 113.679 80.2352 116.887 76.2946 119.363C72.354 121.838 67.9286 123.664 63.039 124.84C58.1494 126.016 52.3417 126.604 47.2663 126.604" fill="#CDE6E1"/>
<path d="M137.643 172.53C130.453 172.53 123.408 171.581 116.517 169.704C109.626 167.816 103.055 164.752 96.8037 160.512L105.644 137.88C109.183 140.469 113.278 142.532 117.941 144.069C122.593 145.606 127.926 146.37 133.94 146.37C142.781 146.37 149.445 144.482 153.922 140.717C158.399 136.941 160.637 127.306 160.637 119.528V116.702C158.625 119.178 156.15 121.117 153.21 122.541C150.259 123.954 147.206 124.985 144.018 125.635C140.831 126.285 137.643 126.605 134.466 126.605C125.512 126.605 118.322 124.727 112.896 120.952C107.47 117.187 103.53 111.998 101.054 105.396C98.578 98.7939 97.3401 91.3666 97.3401 83.1244V32H125.11V77.6158C125.11 80.2051 125.285 82.8562 125.636 85.5692C125.987 88.2822 126.75 90.8508 127.936 93.2647C129.112 95.6786 130.918 97.6282 133.331 99.1034C135.735 100.579 138.892 101.311 142.791 101.311C148.093 101.311 151.982 100.011 154.458 97.4219C156.934 94.8327 158.533 91.6142 159.234 87.7871C159.946 83.96 160.297 80.0916 160.297 76.2026V32H188.407V107.315C188.407 116.392 187.643 128.534 186.106 136.013C184.58 143.492 181.918 149.949 178.153 155.375C174.377 160.801 169.189 165.01 162.587 168.012C155.985 171.014 147.681 172.52 137.654 172.52" fill="#CDE6E1"/>
<path d="M201.157 125.17V31.9993H226.09L228.566 42.0777C231.155 38.6632 233.951 36.0946 236.963 34.3822C239.975 32.6698 242.915 31.5867 245.803 31.1122C248.692 30.648 251.137 30.4004 253.148 30.4004C258.327 30.4004 263.103 31.3494 267.456 33.2269C271.819 35.1146 275.358 38.5291 278.071 43.4806C280.66 39.9424 283.497 37.2603 286.561 35.4344C289.624 33.6086 292.75 32.3088 295.938 31.5454C299.115 30.7821 302.302 30.4004 305.479 30.4004C312.907 30.4004 318.859 31.9065 323.336 34.9083C327.813 37.9102 331.114 42.1602 333.239 47.6379C335.364 53.1155 336.426 59.4596 336.426 66.6393V125.16H308.492V72.8287C308.492 71.1782 308.378 69.3523 308.141 67.3511C307.904 65.3498 307.409 63.493 306.645 61.7806C305.871 60.0682 304.726 58.655 303.189 57.5409C301.663 56.4165 299.538 55.8594 296.825 55.8594C294.112 55.8594 291.873 56.4165 290.109 57.5409C288.345 58.6653 286.932 60.1301 285.869 61.956C284.807 63.7922 284.064 65.814 283.662 68.0525C283.249 70.291 283.043 72.5295 283.043 74.768V125.16H255.108V72.6533C255.108 71.1163 254.953 69.3833 254.665 67.4336C254.365 65.4839 253.839 63.6374 253.076 61.8632C252.302 60.0992 251.126 58.655 249.538 57.5306C247.939 56.4062 245.669 55.8491 242.729 55.8491C238.717 55.8491 235.746 56.9735 233.796 59.212C231.846 61.4505 230.619 64.1016 230.082 67.1654C229.556 70.2291 229.298 73.0556 229.298 75.6552V125.16H201.178L201.157 125.17Z" fill="#CDE6E1"/>
<path d="M348.803 147.482V31.9984H374.799L376.212 42.9639C380.328 38.3631 384.722 35.0931 389.385 33.1537C394.037 31.204 399.257 30.2344 405.034 30.2344C414.101 30.2344 421.652 32.3904 427.656 36.6817C433.66 40.9833 438.178 46.7291 441.18 53.9191C444.182 61.1091 445.688 69.2379 445.688 78.3157C445.688 87.3934 444.089 95.5841 440.912 102.888C437.724 110.191 433.01 115.968 426.769 120.218C420.518 124.458 412.802 126.583 403.61 126.583C399.721 126.583 396.059 126.108 392.645 125.169C389.23 124.231 386.167 122.993 383.454 121.456C380.741 119.929 378.564 118.279 376.913 116.504V147.482H348.793H348.803ZM398.318 101.124C403.497 101.124 407.51 99.9992 410.336 97.7607C413.163 95.5222 415.174 92.6957 416.35 89.2709C417.526 85.8564 418.114 82.4419 418.114 79.0171C418.114 75.2416 417.464 71.5589 416.165 67.9691C414.875 64.3792 412.75 61.4599 409.8 59.2214C406.85 56.9829 402.837 55.8585 397.782 55.8585C393.181 55.8585 389.323 56.9519 386.208 59.1285C383.082 61.3051 380.72 64.111 379.131 67.5255C377.543 70.94 376.748 74.602 376.748 78.491C376.748 82.38 377.512 86.0318 379.049 89.4566C380.576 92.8711 382.938 95.6769 386.125 97.8535C389.303 100.03 393.367 101.124 398.329 101.124" fill="#CDE6E1"/>
<path d="M490.108 125.17C483.744 125.17 478.204 124.613 473.49 123.489C468.776 122.364 465 120.394 462.174 117.568C459.461 114.978 457.49 111.533 456.252 107.221C455.014 102.919 454.396 97.648 454.396 91.3967V0H482.506V88.0442C482.506 90.0454 482.599 91.8713 482.774 93.5218C482.96 95.1723 483.455 96.4721 484.28 97.4108C485.58 99.1748 488.169 100.062 492.058 100.062H500.022V125.17H490.119H490.108Z" fill="#CDE6E1"/>
<path d="M478.683 232.787C478.683 229.52 478.189 227.164 477.201 225.72C476.289 224.276 474.921 223.402 473.097 223.098C471.349 222.794 469.222 222.68 466.714 222.756L462.04 222.984V244.073C462.04 246.125 462.002 248.025 461.926 249.772C461.85 251.444 461.736 252.774 461.584 253.762L479.025 253.648C481.685 253.648 484.117 253.154 486.321 252.166C488.524 251.102 490.31 249.354 491.678 246.923C493.046 244.415 493.73 241.033 493.73 236.777H500L499.43 260.944H439.697V254.674C441.825 254.598 443.459 254.256 444.599 253.648C445.739 252.964 446.537 251.824 446.993 250.228C447.449 248.557 447.677 246.277 447.677 243.389V197.905C447.677 196.006 447.715 194.182 447.791 192.434C447.943 190.686 448.057 189.318 448.133 188.33C446.841 188.406 445.359 188.482 443.687 188.558C442.015 188.558 440.685 188.596 439.697 188.672V181.148H495.896L496.58 202.579H490.31C490.31 198.247 489.588 195.018 488.144 192.89C486.777 190.686 484.991 189.204 482.787 188.444C480.583 187.684 478.303 187.342 475.947 187.418L470.019 187.532C467.968 187.608 466.372 187.95 465.232 188.558C464.092 189.166 463.256 190.268 462.724 191.864C462.268 193.384 462.04 195.664 462.04 198.703V216.144L477.999 216.258L477.429 206.341H484.953V232.787H478.683Z" fill="#DBEFF8"/>
<path d="M420.958 206.683C420.047 200.071 417.805 195.055 414.233 191.636C410.661 188.14 406.025 186.392 400.326 186.392C396.298 186.392 392.688 187.304 389.496 189.128C386.38 190.876 383.721 193.307 381.517 196.423C379.389 199.463 377.755 203.035 376.615 207.139C375.475 211.166 374.905 215.498 374.905 220.134C374.905 226.897 375.969 232.863 378.097 238.031C380.301 243.199 383.341 247.264 387.216 250.228C391.168 253.192 395.766 254.674 401.01 254.674C405.873 254.674 410.661 253.496 415.373 251.14C420.161 248.708 424.112 245.288 427.228 240.881L431.902 245.098C428.33 249.962 424.53 253.686 420.503 256.27C416.475 258.778 412.523 260.488 408.647 261.399C404.847 262.311 401.39 262.767 398.274 262.767C392.422 262.767 387.102 261.741 382.315 259.69C377.603 257.562 373.499 254.674 370.003 251.026C366.584 247.302 363.924 243.009 362.024 238.145C360.2 233.205 359.288 227.885 359.288 222.186C359.288 216.942 360.086 211.774 361.682 206.683C363.354 201.591 365.824 196.993 369.092 192.889C372.435 188.786 376.615 185.518 381.631 183.086C386.647 180.578 392.46 179.324 399.072 179.324C402.416 179.324 405.911 179.856 409.559 180.92C413.207 181.908 416.627 183.39 419.819 185.366L419.363 180.122H427.228V206.683H420.958Z" fill="#DBEFF8"/>
<path d="M335.265 262.312L295.709 210.901C294.873 209.685 293.961 208.469 292.973 207.253C292.061 205.961 291.15 204.669 290.238 203.377H290.124L290.352 243.161C290.352 245.213 290.314 247.189 290.238 249.089C290.238 250.988 290.162 252.546 290.01 253.762C291.301 253.686 292.783 253.61 294.455 253.534C296.127 253.458 297.457 253.42 298.445 253.42V260.944H274.164V254.674C276.14 254.598 277.66 254.294 278.724 253.762C279.864 253.154 280.7 252.166 281.232 250.798C281.764 249.354 282.03 247.455 282.03 245.099L281.916 197.677C281.916 195.854 281.954 194.106 282.03 192.434C282.106 190.762 282.182 189.394 282.258 188.33C281.042 188.406 279.598 188.482 277.926 188.558C276.254 188.558 274.924 188.596 273.937 188.672V181.148H290.352L327.855 229.596C329.451 231.648 330.819 233.471 331.959 235.067C333.175 236.663 334.239 238.107 335.151 239.399H335.265V197.905C335.265 196.006 335.303 194.182 335.379 192.434C335.455 190.686 335.531 189.318 335.607 188.33C334.391 188.406 332.947 188.482 331.275 188.558C329.603 188.558 328.235 188.596 327.171 188.672V181.148H351.566V187.418C349.514 187.494 347.88 187.874 346.664 188.558C345.524 189.166 344.726 190.268 344.27 191.864C343.814 193.46 343.586 195.74 343.586 198.703L343.472 262.312H335.265Z" fill="#DBEFF8"/>
<path d="M193.651 260.943V254.445C195.779 254.445 197.489 253.837 198.781 252.621C200.073 251.406 201.137 249.81 201.973 247.834C202.809 245.782 203.683 243.502 204.595 240.994L227.279 179.096H233.435L258.172 242.134C258.628 243.426 259.236 245.25 259.996 247.606C260.755 249.962 261.173 252.013 261.249 253.761C262.541 253.685 263.795 253.609 265.011 253.533C266.227 253.457 267.291 253.419 268.203 253.419V260.943H239.135V254.673C241.491 254.673 243.086 254.179 243.922 253.191C244.758 252.203 245.1 250.912 244.948 249.316C244.872 247.72 244.492 246.086 243.808 244.414L240.959 236.662L214.512 237.118L212.004 244.756C211.548 246.048 211.016 247.53 210.408 249.202C209.8 250.798 209.192 252.241 208.584 253.533C209.952 253.457 211.434 253.381 213.03 253.305C214.702 253.229 216.032 253.191 217.02 253.191V260.943H193.651ZM217.02 229.823H238.451L232.295 213.066C231.383 210.482 230.509 207.898 229.673 205.314C228.913 202.654 228.267 200.222 227.735 198.019H227.507C227.051 199.539 226.481 201.514 225.797 203.946C225.19 206.378 224.316 209.152 223.176 212.268L217.02 229.823Z" fill="#DBEFF8"/>
<path d="M174.294 262.312L134.739 210.901C133.903 209.685 132.991 208.469 132.003 207.253C131.091 205.961 130.179 204.669 129.267 203.377H129.153L129.381 243.161C129.381 245.213 129.343 247.189 129.267 249.089C129.267 250.988 129.191 252.546 129.039 253.762C130.331 253.686 131.813 253.61 133.485 253.534C135.157 253.458 136.486 253.42 137.474 253.42V260.944H113.194V254.674C115.17 254.598 116.69 254.294 117.754 253.762C118.893 253.154 119.729 252.166 120.261 250.798C120.793 249.354 121.059 247.455 121.059 245.099L120.945 197.677C120.945 195.854 120.983 194.106 121.059 192.434C121.135 190.762 121.211 189.394 121.287 188.33C120.071 188.406 118.627 188.482 116.956 188.558C115.284 188.558 113.954 188.596 112.966 188.672V181.148H129.381L166.885 229.596C168.481 231.648 169.849 233.471 170.988 235.067C172.204 236.663 173.268 238.107 174.18 239.399H174.294V197.905C174.294 196.006 174.332 194.182 174.408 192.434C174.484 190.686 174.56 189.318 174.636 188.33C173.42 188.406 171.976 188.482 170.304 188.558C168.633 188.558 167.265 188.596 166.201 188.672V181.148H190.595V187.418C188.543 187.494 186.91 187.874 185.694 188.558C184.554 189.166 183.756 190.268 183.3 191.864C182.844 193.46 182.616 195.74 182.616 198.703L182.502 262.312H174.294Z" fill="#DBEFF8"/>
<path d="M101.211 187.418C99.159 187.494 97.5251 187.874 96.3092 188.558C95.1693 189.166 94.3713 190.268 93.9153 191.864C93.4594 193.46 93.2314 195.74 93.2314 198.703V243.959C93.2314 246.011 93.1934 247.911 93.1174 249.658C93.0414 251.406 92.9274 252.774 92.7754 253.762C94.0673 253.686 95.5492 253.61 97.2211 253.534C98.893 253.458 100.223 253.42 101.211 253.42V260.944H70.8887V254.674C73.0165 254.598 74.6505 254.256 75.7904 253.648C76.9303 252.964 77.7283 251.824 78.1842 250.228C78.6402 248.557 78.8682 246.277 78.8682 243.389V197.905C78.8682 196.006 78.9062 194.182 78.9822 192.434C79.1342 190.686 79.2482 189.318 79.3242 188.33C78.0323 188.406 76.5503 188.482 74.8784 188.558C73.2065 188.558 71.8766 188.596 70.8887 188.672V181.148H101.211V187.418Z" fill="#DBEFF8"/>
<path d="M6.65625 260.944V254.674C8.78413 254.598 10.418 254.256 11.558 253.648C12.6979 252.964 13.4959 251.824 13.9518 250.228C14.4078 248.557 14.6358 246.277 14.6358 243.389V197.905C14.6358 196.006 14.6738 194.182 14.7498 192.434C14.9018 190.686 15.0158 189.318 15.0918 188.33C13.7998 188.406 12.3179 188.482 10.646 188.558C8.97412 188.558 7.64419 188.596 6.65625 188.672V181.148H62.285L62.855 202.579H56.5854C56.5854 198.247 55.8634 195.018 54.4195 192.89C52.9756 190.686 51.1517 189.204 48.9478 188.444C46.7439 187.684 44.5021 187.342 42.2222 187.418L36.6365 187.532C34.6606 187.608 33.1027 187.988 31.9628 188.672C30.8988 189.356 30.1389 190.534 29.6829 192.206C29.2269 193.802 28.999 196.006 28.999 198.817V218.652H43.3621L42.7922 208.849H50.3157V235.295H44.1601C44.1601 232.027 43.6661 229.672 42.6782 228.228C41.6902 226.784 40.2843 225.91 38.4604 225.606C36.7125 225.226 34.6226 225.112 32.1908 225.264L28.999 225.378V243.959C28.999 246.011 28.961 247.911 28.885 249.658C28.809 251.406 28.695 252.774 28.543 253.762C29.5309 253.686 30.6709 253.648 31.9628 253.648C33.3307 253.572 34.6606 253.534 35.9526 253.534C37.3205 253.458 38.3844 253.42 39.1444 253.42V260.944H6.65625Z" fill="#DBEFF8"/>
</svg>
